<svg width="80" height="80" viewBox="0 0 80 80" fill="none" xmlns="http://www.w3.org/2000/svg">
<path d="M30 59.1667C29.6333 59.1667 29.2333 59.0667 28.9 58.9C26.3333 57.6 24.1333 55.6667 22.5333 53.2667C21.2 51.2667 21.2 48.7 22.5333 46.7C24.1333 44.3 26.3333 42.3667 28.9 41.1C30.1333 40.4667 31.6333 41 32.2667 42.2333C32.9 43.4667 32.4 44.9667 31.1333 45.6C29.3333 46.5 27.8 47.8667 26.7 49.5333C26.5 49.8333 26.5 50.2333 26.7 50.5667C27.8 52.2333 29.3333 53.6 31.1333 54.5C32.3667 55.1333 32.8667 56.6333 32.2667 57.8667C31.8 58.6667 30.9 59.1667 30 59.1667Z" fill="url(#paint0_linear_2530_65)"/>
<path d="M50.7 59.1667C49.7667 59.1667 48.9 58.6667 48.4667 57.8C47.8333 56.5667 48.3333 55.0667 49.6 54.4333C51.4 53.5333 52.9333 52.1667 54.0333 50.5C54.2333 50.2 54.2333 49.8 54.0333 49.4667C52.9333 47.8 51.4 46.4333 49.6 45.5333C48.3667 44.9 47.8667 43.4 48.4667 42.1667C49.1 40.9333 50.6 40.4333 51.8333 41.0333C54.4 42.3333 56.6 44.2667 58.2 46.6667C59.5333 48.6667 59.5333 51.2333 58.2 53.2333C56.6 55.6333 54.4 57.5667 51.8333 58.8333C51.4333 59.0667 51.0667 59.1667 50.7 59.1667Z" fill="url(#paint1_linear_2530_65)"/>
<path d="M50 75.8333H30C11.9 75.8333 4.16666 68.1 4.16666 50V30C4.16666 11.9 11.9 4.16667 30 4.16667H50C68.1 4.16667 75.8333 11.9 75.8333 30V50C75.8333 68.1 68.1 75.8333 50 75.8333ZM30 9.16667C14.6333 9.16667 9.16666 14.6333 9.16666 30V50C9.16666 65.3667 14.6333 70.8333 30 70.8333H50C65.3667 70.8333 70.8333 65.3667 70.8333 50V30C70.8333 14.6333 65.3667 9.16667 50 9.16667H30Z" fill="url(#paint2_linear_2530_65)"/>
<path d="M7.43333 29.2C6.06667 29.2 4.93333 28.0667 4.93333 26.7C4.93333 25.3333 6.03333 24.2 7.43333 24.2L71.5 24.1667C72.8667 24.1667 74 25.3 74 26.6667C74 28.0333 72.9 29.1667 71.5 29.1667L7.43333 29.2Z" fill="url(#paint3_linear_2530_65)"/>
<defs>
<linearGradient id="paint0_linear_2530_65" x1="24.4339" y1="44.0787" x2="36.0539" y2="48.4147" gradientUnits="userSpaceOnUse">
<stop stop-color="#0049FC"/>
<stop offset="1" stop-color="#00CBFE"/>
</linearGradient>
<linearGradient id="paint1_linear_2530_65" x1="51.0932" y1="44.0359" x2="62.7213" y2="48.3626" gradientUnits="userSpaceOnUse">
<stop stop-color="#0049FC"/>
<stop offset="1" stop-color="#00CBFE"/>
</linearGradient>
<linearGradient id="paint2_linear_2530_65" x1="23.0516" y1="16.8576" x2="85.2233" y2="55.5003" gradientUnits="userSpaceOnUse">
<stop stop-color="#0049FC"/>
<stop offset="1" stop-color="#00CBFE"/>
</linearGradient>
<linearGradient id="paint3_linear_2530_65" x1="23.1331" y1="25.058" x2="24.2595" y2="34.6651" gradientUnits="userSpaceOnUse">
<stop stop-color="#0049FC"/>
<stop offset="1" stop-color="#00CBFE"/>
</linearGradient>
</defs>
</svg>
