<svg width="80" height="80" viewBox="0 0 80 80" fill="none" xmlns="http://www.w3.org/2000/svg">
<path d="M77.8571 28.5714H55.7143C53.3393 28.5714 51.4286 26.6607 51.4286 24.2857V2.14286C51.4286 0.964286 52.3929 0 53.5714 0H60.7143C61.8929 0 62.8571 0.964286 62.8571 2.14286V17.1429H77.8571C79.0357 17.1429 80 18.1071 80 19.2857V26.4286C80 27.6071 79.0357 28.5714 77.8571 28.5714ZM28.5714 24.2857V2.14286C28.5714 0.964286 27.6071 0 26.4286 0H19.2857C18.1071 0 17.1429 0.964286 17.1429 2.14286V17.1429H2.14286C0.964286 17.1429 0 18.1071 0 19.2857V26.4286C0 27.6071 0.964286 28.5714 2.14286 28.5714H24.2857C26.6607 28.5714 28.5714 26.6607 28.5714 24.2857ZM28.5714 77.8571V55.7143C28.5714 53.3393 26.6607 51.4286 24.2857 51.4286H2.14286C0.964286 51.4286 0 52.3929 0 53.5714V60.7143C0 61.8929 0.964286 62.8571 2.14286 62.8571H17.1429V77.8571C17.1429 79.0357 18.1071 80 19.2857 80H26.4286C27.6071 80 28.5714 79.0357 28.5714 77.8571ZM62.8571 77.8571V62.8571H77.8571C79.0357 62.8571 80 61.8929 80 60.7143V53.5714C80 52.3929 79.0357 51.4286 77.8571 51.4286H55.7143C53.3393 51.4286 51.4286 53.3393 51.4286 55.7143V77.8571C51.4286 79.0357 52.3929 80 53.5714 80H60.7143C61.8929 80 62.8571 79.0357 62.8571 77.8571Z" fill="url(#paint0_linear_2476_4890)"/>
<defs>
<linearGradient id="paint0_linear_2476_4890" x1="40" y1="0" x2="40" y2="80" gradientUnits="userSpaceOnUse">
<stop stop-color="#0049FC"/>
<stop offset="1" stop-color="#0049FC" stop-opacity="0"/>
</linearGradient>
</defs>
</svg>
