<svg width="39" height="39" viewBox="0 0 39 39" fill="none" xmlns="http://www.w3.org/2000/svg">
<g clip-path="url(#clip0_2476_4793)">
<path d="M6.3375 19.5C6.3375 16.7213 8.59625 14.4625 11.375 14.4625H17.875V11.375H11.375C6.89 11.375 3.25 15.015 3.25 19.5C3.25 23.985 6.89 27.625 11.375 27.625H17.875V24.5375H11.375C8.59625 24.5375 6.3375 22.2788 6.3375 19.5ZM13 21.125H26V17.875H13V21.125ZM27.625 11.375H21.125V14.4625H27.625C30.4037 14.4625 32.6625 16.7213 32.6625 19.5C32.6625 22.2788 30.4037 24.5375 27.625 24.5375H21.125V27.625H27.625C32.11 27.625 35.75 23.985 35.75 19.5C35.75 15.015 32.11 11.375 27.625 11.375Z" fill="black"/>
</g>
<defs>
<clipPath id="clip0_2476_4793">
<rect width="39" height="39" fill="white"/>
</clipPath>
</defs>
</svg>
