<svg width="80" height="80" viewBox="0 0 80 80" fill="none" xmlns="http://www.w3.org/2000/svg">
<path d="M50 75.8333H30C15.3 75.8333 10.8333 71.3667 10.8333 56.6667V23.3333C10.8333 8.63334 15.3 4.16667 30 4.16667H50C64.7 4.16667 69.1667 8.63334 69.1667 23.3333V56.6667C69.1667 71.3667 64.7 75.8333 50 75.8333ZM30 9.16667C18.0667 9.16667 15.8333 11.4333 15.8333 23.3333V56.6667C15.8333 68.5667 18.0667 70.8333 30 70.8333H50C61.9333 70.8333 64.1667 68.5667 64.1667 56.6667V23.3333C64.1667 11.4333 61.9333 9.16667 50 9.16667H30Z" fill="url(#paint0_linear_2530_78)"/>
<path d="M46.6667 20.8333H33.3333C31.9667 20.8333 30.8333 19.7 30.8333 18.3333C30.8333 16.9667 31.9667 15.8333 33.3333 15.8333H46.6667C48.0333 15.8333 49.1667 16.9667 49.1667 18.3333C49.1667 19.7 48.0333 20.8333 46.6667 20.8333Z" fill="url(#paint1_linear_2530_78)"/>
<path d="M40 66.2C35.7667 66.2 32.3333 62.7667 32.3333 58.5333C32.3333 54.3 35.7667 50.8667 40 50.8667C44.2333 50.8667 47.6667 54.3 47.6667 58.5333C47.6667 62.7667 44.2333 66.2 40 66.2ZM40 55.8333C38.5333 55.8333 37.3333 57.0333 37.3333 58.5C37.3333 59.9667 38.5333 61.1667 40 61.1667C41.4667 61.1667 42.6667 59.9667 42.6667 58.5C42.6667 57.0333 41.4667 55.8333 40 55.8333Z" fill="url(#paint2_linear_2530_78)"/>
<defs>
<linearGradient id="paint0_linear_2530_78" x1="26.2048" y1="16.8576" x2="82.0628" y2="45.1168" gradientUnits="userSpaceOnUse">
<stop stop-color="#0049FC"/>
<stop offset="1" stop-color="#00CBFE"/>
</linearGradient>
<linearGradient id="paint1_linear_2530_78" x1="35.6644" y1="16.7187" x2="39.2241" y2="24.8314" gradientUnits="userSpaceOnUse">
<stop stop-color="#0049FC"/>
<stop offset="1" stop-color="#00CBFE"/>
</linearGradient>
<linearGradient id="paint2_linear_2530_78" x1="36.3738" y1="53.5819" x2="49.6757" y2="61.8497" gradientUnits="userSpaceOnUse">
<stop stop-color="#0049FC"/>
<stop offset="1" stop-color="#00CBFE"/>
</linearGradient>
</defs>
</svg>
