<svg width="80" height="80" viewBox="0 0 80 80" fill="none" xmlns="http://www.w3.org/2000/svg">
<path d="M29.0816 57.1591C27.5738 59.055 27.5738 62.1278 29.0816 64.0237C30.5894 65.9196 33.0331 65.9196 34.5409 64.0237L59.0999 33.1428C62.1139 29.3529 67.0014 29.3529 70.0154 33.1428C73.0294 36.9326 73.0294 43.0782 70.0154 46.868L45.9298 77.1517C48.9407 80.9416 53.825 80.9455 56.839 77.1596L56.8453 77.1517L75.4778 53.7248C81.5074 46.1431 81.5074 33.854 75.4778 26.2742C69.4482 18.6925 59.6733 18.6925 53.6469 26.2742L29.0816 57.1591ZM67.2889 36.5692C65.7811 34.6732 63.3374 34.6732 61.8311 36.5692L37.269 67.4501C34.2581 71.24 29.3738 71.2439 26.3598 67.4599L26.352 67.4501C24.8457 65.5561 22.4036 65.5542 20.8958 67.4481L20.8942 67.4501C19.3864 69.344 19.3849 72.4168 20.8911 74.3127L20.8942 74.3167C26.9223 81.8944 36.6971 81.8944 42.7252 74.3167L67.2873 43.4318C68.7951 41.5359 68.7951 38.4631 67.2889 36.5692ZM26.3535 53.7268L50.9125 22.8458C52.4188 20.9499 52.4188 17.8772 50.9125 15.9812C49.4063 14.0873 46.9642 14.0873 45.4579 15.9812L20.8942 46.8621C17.8818 50.652 12.9943 50.654 9.98032 46.8641L9.97876 46.8621C6.96474 43.0742 6.96162 36.9326 9.97407 33.1408L9.97876 33.1349L34.0675 2.84535C31.055 -0.944522 26.1691 -0.946486 23.1536 2.84143L23.1504 2.84535L4.52103 26.2742C-1.50701 33.8559 -1.50701 46.145 4.52103 53.7248C10.5522 61.3065 20.3224 61.3065 26.3535 53.7268ZM12.7084 43.4318C14.2146 45.3258 16.6568 45.3258 18.163 43.4318L42.7267 12.5489C45.7392 8.75906 50.625 8.75709 53.6391 12.545L53.6422 12.5489C55.15 14.4449 57.5937 14.4449 59.0999 12.5489C60.6077 10.653 60.6077 7.58025 59.0999 5.68629C53.0703 -1.89543 43.2986 -1.89543 37.269 5.68629L12.7084 36.5692C11.2006 38.4631 11.2006 41.5359 12.7068 43.4318H12.7084Z" fill="url(#paint0_linear_2476_4888)"/>
<defs>
<linearGradient id="paint0_linear_2476_4888" x1="40" y1="0" x2="40" y2="80" gradientUnits="userSpaceOnUse">
<stop stop-color="#0049FC"/>
<stop offset="1" stop-color="#0049FC" stop-opacity="0"/>
</linearGradient>
</defs>
</svg>
