<svg width="80" height="80" viewBox="0 0 80 80" fill="none" xmlns="http://www.w3.org/2000/svg">
<path d="M34.7667 61.2333C34.2667 61.2333 33.8 61.1 33.3667 60.8C32.6667 60.3333 32.2667 59.5667 32.2667 58.7333C32.2667 58.2333 32.2333 57.7 32.1667 57.1667C31.8667 54.8 30.8 52.7333 29 50.9333C27.2 49.1333 24.9667 48 22.5667 47.7C22.1667 47.6667 21.6 47.6333 21.0667 47.6667C20.2 47.7333 19.4 47.3667 18.9 46.6667C18.4 46 18.2667 45.1 18.5333 44.3C19.0333 42.9333 19.7667 41.7 20.6333 40.7L25.7667 34.2333C34.6 23.2 52.5 9.93333 65.6 4.66666C68.4 3.59999 71.3333 4.23333 73.3667 6.23333C75.4667 8.33333 76.1 11.3333 75 14.0667C69.7333 27.2 56.5 45.0667 45.4667 53.9L38.9 59.1667C37.6667 60.0667 36.6667 60.6333 35.6667 61.0333C35.4 61.1667 35.0667 61.2333 34.7667 61.2333ZM25.1333 43.1333C27.9333 43.8667 30.4333 45.3333 32.5333 47.4333C34.6333 49.5 36.0333 51.9 36.7333 54.5667L42.3667 50.0333C52.8333 41.6667 65.4 24.7 70.3667 12.2333C70.8667 11 70.1667 10.1333 69.8333 9.83333C69.6 9.59999 68.7333 8.86666 67.4 9.36666C55 14.3667 38.0333 26.9333 29.6333 37.4L25.1333 43.1333Z" fill="url(#paint0_linear_2530_51)"/>
<path d="M13.6 75.8333C11.1 75.8333 8.7 74.8333 6.9 73.0333C4.83334 70.9667 3.83334 68.1 4.16667 65.1667L5.06667 56.9667C5.93334 48.8333 12.6 42.8 20.8667 42.6333C21.5 42.6 22.3333 42.6333 23.1 42.7C26.7333 43.1667 29.9667 44.8 32.5667 47.4C35.1333 49.9667 36.6667 53.0333 37.1333 56.4667C37.2333 57.2 37.3 58 37.3 58.7C37.3 63.1 35.6 67.2 32.5333 70.3C29.9667 72.8333 26.6667 74.4 22.9333 74.8667L14.7 75.7667C14.3333 75.8 13.9667 75.8333 13.6 75.8333ZM21.5 47.6667C21.3667 47.6667 21.2 47.6667 21.0667 47.6667C16.0333 47.7667 10.7 51.2 10.0333 57.5333L9.13334 65.7333C8.96667 67.1333 9.46667 68.5 10.4333 69.5C11.4 70.4667 12.7667 70.9667 14.1333 70.8L22.3333 69.9C24.9 69.5667 27.2 68.5 28.9333 66.7667C31.0667 64.6333 32.2667 61.7667 32.2667 58.7C32.2667 58.2 32.2333 57.6667 32.1667 57.1333C31.8667 54.7667 30.8 52.7 29 50.9C27.2 49.1 24.9667 47.9667 22.5667 47.6667C22.3 47.6667 21.9 47.6667 21.5 47.6667Z" fill="url(#paint1_linear_2530_51)"/>
<path d="M47.4667 50.7333C46.1 50.7333 44.9667 49.6 44.9667 48.2333C44.9667 40.9 39 34.9667 31.7 34.9667C30.3333 34.9667 29.2 33.8333 29.2 32.4667C29.2 31.1 30.3 29.9667 31.6667 29.9667C41.7333 29.9667 49.9333 38.1667 49.9333 48.2333C49.9667 49.6333 48.8333 50.7333 47.4667 50.7333Z" fill="url(#paint2_linear_2530_51)"/>
<path d="M52.2667 75.7667C49.1667 75.7667 46.0667 74.3 43.1 71.3333C42.1333 70.3667 42.1333 68.7667 43.1 67.8C44.0667 66.8333 45.6667 66.8333 46.6333 67.8C50.5667 71.7333 53.9333 71.7333 57.8667 67.8L67.7333 57.9333C71.7 53.9667 71.7 50.6 67.7333 46.6667L65.2667 44.2333C64.3 43.2667 64.2667 41.6667 65.2333 40.7C66.2 39.7 67.8 39.7 68.7667 40.6667L71.2333 43.1C77.1667 49.0333 77.1667 55.5333 71.2333 61.4667L61.3667 71.3333C58.4667 74.2667 55.3667 75.7667 52.2667 75.7667Z" fill="url(#paint3_linear_2530_51)"/>
<path d="M10.3667 37.5333C9.73335 37.5333 9.06668 37.3 8.60001 36.8C2.73335 30.9 2.73335 24.3667 8.60001 18.4667L18.4667 8.6C24.3333 2.73333 30.9333 2.73333 36.8 8.6L39.2667 11.0667C40.2333 12.0333 40.2333 13.6333 39.2667 14.6C38.3 15.5667 36.7 15.5667 35.7333 14.6L33.2333 12.1333C29.3 8.2 25.9 8.2 22 12.1333L12.1333 22C8.20001 25.9667 8.20001 29.3333 12.1333 33.3C13.1 34.2667 13.1 35.8667 12.1333 36.8333C11.6333 37.3 11 37.5333 10.3667 37.5333Z" fill="url(#paint4_linear_2530_51)"/>
<path d="M25.1667 27.6667C24.5333 27.6667 23.9 27.4333 23.4 26.9333C22.4333 25.9667 22.4333 24.3667 23.4 23.4L35.7333 11.0667C36.7 10.1 38.3 10.1 39.2667 11.0667C40.2333 12.0333 40.2333 13.6333 39.2667 14.6L26.9333 26.9333C26.4333 27.4333 25.8 27.6667 25.1667 27.6667Z" fill="url(#paint5_linear_2530_51)"/>
<path d="M57.2 54.7667C56.5666 54.7667 55.9333 54.5333 55.4333 54.0333C54.4666 53.0667 54.4666 51.4667 55.4333 50.5L65.3 40.6333C66.2666 39.6667 67.8666 39.6667 68.8333 40.6333C69.8 41.6 69.8 43.2 68.8333 44.1667L58.9667 54.0333C58.5 54.5333 57.8666 54.7667 57.2 54.7667Z" fill="url(#paint6_linear_2530_51)"/>
<defs>
<linearGradient id="paint0_linear_2530_51" x1="33.454" y1="14.2617" x2="82.992" y2="45.0811" gradientUnits="userSpaceOnUse">
<stop stop-color="#0049FC"/>
<stop offset="1" stop-color="#00CBFE"/>
</linearGradient>
<linearGradient id="paint1_linear_2530_51" x1="12.8512" y1="48.5017" x2="41.6576" y2="66.3972" gradientUnits="userSpaceOnUse">
<stop stop-color="#0049FC"/>
<stop offset="1" stop-color="#00CBFE"/>
</linearGradient>
<linearGradient id="paint2_linear_2530_51" x1="34.6636" y1="33.6441" x2="52.6664" y2="44.8161" gradientUnits="userSpaceOnUse">
<stop stop-color="#0049FC"/>
<stop offset="1" stop-color="#00CBFE"/>
</linearGradient>
<linearGradient id="paint3_linear_2530_51" x1="51.1521" y1="46.2891" x2="81.1802" y2="63.6438" gradientUnits="userSpaceOnUse">
<stop stop-color="#0049FC"/>
<stop offset="1" stop-color="#00CBFE"/>
</linearGradient>
<linearGradient id="paint4_linear_2530_51" x1="13.6315" y1="10.1028" x2="43.412" y2="29.9779" gradientUnits="userSpaceOnUse">
<stop stop-color="#0049FC"/>
<stop offset="1" stop-color="#00CBFE"/>
</linearGradient>
<linearGradient id="paint5_linear_2530_51" x1="27.2381" y1="13.4096" x2="42.2646" y2="22.7448" gradientUnits="userSpaceOnUse">
<stop stop-color="#0049FC"/>
<stop offset="1" stop-color="#00CBFE"/>
</linearGradient>
<linearGradient id="paint6_linear_2530_51" x1="58.6214" y1="42.5395" x2="71.508" y2="50.5446" gradientUnits="userSpaceOnUse">
<stop stop-color="#0049FC"/>
<stop offset="1" stop-color="#00CBFE"/>
</linearGradient>
</defs>
</svg>
