<svg width="80" height="80" viewBox="0 0 80 80" fill="none" xmlns="http://www.w3.org/2000/svg">
<path d="M1.67556 55H6.18957C9.22831 71.0523 25.2214 80 40 80C54.8027 80 70.7752 71.0344 73.8105 55H78.3245C79.8142 55 80.5603 52.9803 79.5068 51.7992L70.1666 41.3259C69.5136 40.5937 68.4548 40.5937 67.8017 41.3259L58.4614 51.7992C57.408 52.9804 58.154 55 59.6438 55H64.5413C61.7139 63.487 52.7019 68.5294 44.459 69.6898V40H51.705C52.6285 40 53.3772 39.1604 53.3772 38.125V31.875C53.3772 30.8395 52.6285 30 51.705 30H44.459V29.1453C49.654 27.0862 53.3765 21.532 53.3772 15.0018C53.378 6.83932 47.4697 0.115247 40.1909 0.00149697C32.7154 -0.115534 26.6227 6.64447 26.6227 14.9999C26.6227 21.5309 30.3455 27.0859 35.5409 29.1453V30H28.2949C27.3714 30 26.6227 30.8395 26.6227 31.875V38.125C26.6227 39.1604 27.3714 40 28.2949 40H35.5409V69.6898C27.3284 68.5337 18.287 63.49 15.4587 55H20.3561C21.8459 55 22.592 52.9803 21.5385 51.7992L12.1982 41.3259C11.5452 40.5937 10.4865 40.5937 9.83335 41.3259L0.493062 51.7992C-0.560262 52.9803 0.185801 55 1.67556 55ZM40 9.99994C42.4588 9.99994 44.4591 12.2429 44.4591 14.9999C44.4591 17.757 42.4588 20 40 20C37.5412 20 35.5409 17.757 35.5409 14.9999C35.5409 12.2429 37.5412 9.99994 40 9.99994Z" fill="url(#paint0_linear_2479_4898)"/>
<defs>
<linearGradient id="paint0_linear_2479_4898" x1="40" y1="0" x2="40" y2="80" gradientUnits="userSpaceOnUse">
<stop stop-color="#0049FC"/>
<stop offset="1" stop-color="#0049FC" stop-opacity="0"/>
</linearGradient>
</defs>
</svg>
